<?xml version="1.0" encoding="utf-8"?>
<!-- Generator: Adobe Illustrator 24.1.2, SVG Export Plug-In . SVG Version: 6.00 Build 0)  -->
<svg version="1.1" id="Layer_1" xmlns="http://www.w3.org/2000/svg" xmlns:xlink="http://www.w3.org/1999/xlink" x="0px" y="0px"
	 width="100px" height="125px" viewBox="0 0 100 125" enable-background="new 0 0 100 125" xml:space="preserve">
<path fill="#6CCA45" stroke="#000000" stroke-width="3" stroke-miterlimit="10" d="M50,5
	C34.3702,5.0001,21.6997,17.6705,21.6996,33.3004c0,21.6996,17.8378,30.4979,27.6741,61.238
	c0.1072,0.3459,0.4745,0.5394,0.8204,0.4322c0.2065-0.064,0.3682-0.2257,0.4322-0.4322C60.4627,63.7982,78.3004,55,78.3004,33.3004
	C78.3004,17.6705,65.6299,5,50,5z M50,44.3c-6.0751,0-11-4.9249-11-11s4.9249-11,11-11s11,4.9249,11,11l0,0
	C61,39.3751,56.0751,44.3,50,44.3z"/>
<circle stroke="#000000" stroke-width="3" stroke-miterlimit="10" cx="50" cy="33.3" r="8.708"/>
</svg>
